<svg xmlns="http://www.w3.org/2000/svg" viewBox="0 0 500 500">
  <path d="M 221.155 -0.745 L 312.62 252.999 L 147.992 251.264 L 221.155 -0.745 Z" style="stroke-opacity: 0; stroke-width: 0px; fill: rgb(161, 79, 255);"></path>
  <path d="M 244.951 28.944 L 213.616 147.95 L 244.951 28.944 Z" style="stroke-opacity: 0;"></path>
  <path d="M 230.833 52.807 L 290.857 117.499 L 210.915 112.876 L 230.833 52.807 Z" style="stroke-opacity: 0; stroke-width: 0; fill: rgb(161, 79, 255);"></path>
  <path d="M 220.893 483.739 L 311.04 252.279 L 149.576 249.55 L 220.893 483.739 Z" style="stroke-opacity: 0; stroke-width: 0; fill: rgb(161, 79, 255);"></path>
  <path d="M 226.875 118.579 L 360.507 84.793 L 226.743 194.463 L 226.875 118.579 Z" style="stroke-opacity: 0; stroke-width: 0; fill: rgb(161, 79, 255);"></path>
  <path d="M 260.908 169.617 L 361.3 200.524 L 252.072 238.312 L 260.908 169.617 Z" style="stroke-opacity: 0; stroke-width: 0; fill: rgb(161, 79, 255);"></path>
  <path d="M 268.824 206.275 L 404.831 252.278 L 252.072 288.628 L 268.824 206.275 Z" style="stroke-opacity: 0; stroke-width: 0; fill: rgb(161, 79, 255);"></path>
  <path d="M 286.237 186.148 L 372.381 251.56 L 275.025 315.224 L 286.237 186.148 Z" style="stroke-opacity: 0; stroke-width: 0; fill: rgb(161, 79, 255);"></path>
  <path d="M 275.156 293.972 L 332.016 403.231 L 231.493 366.98 L 275.156 293.972 Z" style="stroke-opacity: 0; stroke-width: 0; fill: rgb(161, 79, 255);"></path>
  <path d="M 261.7 345.007 L 294.815 430.546 L 224.369 447.488 L 261.7 345.007 Z" style="stroke-opacity: 0; stroke-width: 0; fill: rgb(161, 79, 255);"></path>
  <path d="M 250.621 322.006 L 301.939 498.834 L 239.408 414.423 L 250.621 322.006 Z" style="stroke-opacity: 0; stroke-width: 0; fill: rgb(161, 79, 255);"></path>
  <path d="M 167.513 29.447 L 231.496 130.798 L 195.085 185.838 L 167.513 29.447 Z" style="stroke-opacity: 0; stroke-width: 0; fill: rgb(161, 79, 255);"></path>
  <path d="M 218.96 108.517 L 197.462 180.397 L 139.681 101.017 L 218.96 108.517 Z" style="stroke-opacity: 0; stroke-width: 0; fill: rgb(161, 79, 255);"></path>
  <path d="M 141.395 131.519 L 235.453 140.143 L 176.879 259.157 L 141.395 131.519 Z" style="stroke-opacity: 0; stroke-width: 0; fill: rgb(161, 79, 255);"></path>
  <path d="M 214.211 182.555 L 195.088 286.782 L 101.689 274.97 L 214.211 182.555 Z" style="stroke-opacity: 0; stroke-width: 0; fill: rgb(161, 79, 255);"></path>
  <path d="M 207.088 145.895 L 305.895 255.873 L 92.984 354.76 L 207.088 145.895 Z" style="stroke-opacity: 0; stroke-width: 0; fill: rgb(161, 79, 255);"></path>
  <path d="M 194.424 273.127 L 228.331 414.733 L 128.601 387.826 L 194.424 273.127 Z" style="stroke-opacity: 0; stroke-width: 0; fill: rgb(161, 79, 255);"></path>
  <path d="M 215.794 73.293 L 278.193 240.057 L 175.297 255.563 L 215.794 73.293 Z" style="stroke-opacity: 0; stroke-width: 0; fill: rgb(81, 0, 156);"></path>
  <path d="M 209.857 272.563 L 277.797 406.262 L 174.902 421.768 L 209.857 272.563 Z" style="stroke-opacity: 0; stroke-width: 0; fill: rgb(81, 0, 156); transform-origin: 226.35px 330.631px;" transform="matrix(-1, 0, 0, -1, -0.00002, 0.000011)"></path>
  <path d="M 227.271 113.703 L 287.295 202.116 L 234.263 226.966 L 227.271 113.703 Z" style="stroke-opacity: 0; stroke-width: 0; fill: rgb(81, 0, 156);"></path>
  <path d="M 310.313 253.154 L 261.111 197.084 L 233.408 240.623 L 310.313 253.154 Z" style="stroke-opacity: 0; stroke-width: 0; fill: rgb(81, 0, 156);"></path>
  <path d="M 231.164 160.426 L 267.442 119.45 L 280.896 294.533 L 231.164 160.426 Z" style="stroke-opacity: 0; stroke-width: 0; fill: rgb(81, 0, 156);"></path>
  <path d="M 238.288 234.464 L 291.187 366.725 L 223.909 322.569 L 238.288 234.464 Z" style="stroke-opacity: 0; stroke-width: 0; fill: rgb(81, 0, 156);"></path>
  <path d="M 218.501 220.806 L 295.144 249.558 L 254.776 306.035 L 218.501 220.806 Z" style="stroke-opacity: 0; stroke-width: 0; fill: rgb(81, 0, 156);"></path>
  <path d="M 226.414 314.972 L 272.983 291.248 L 254.776 380.792 L 226.414 314.972 Z" style="stroke-opacity: 0; stroke-width: 0; fill: rgb(81, 0, 156);"></path>
  <path d="M 192.382 100.044 L 246.864 167.613 L 224.7 206.119 L 192.382 100.044 Z" style="stroke-opacity: 0; stroke-width: 0; fill: rgb(81, 0, 156);"></path>
  <path d="M 202.67 135.268 L 220.746 207.867 L 145.552 260.032 L 202.67 135.268 Z" style="stroke-opacity: 0; stroke-width: 0; fill: rgb(81, 0, 156);"></path>
  <path d="M 175.76 120.89 L 239.74 146.767 L 225.492 258.593 L 175.76 120.89 Z" style="stroke-opacity: 0; stroke-width: 0; fill: rgb(81, 0, 156);"></path>
  <path d="M 168.637 153.957 L 250.031 193.49 L 192.25 335.507 L 168.637 153.957 Z" style="stroke-opacity: 0; stroke-width: 0; fill: rgb(81, 0, 156);"></path>
  <path d="M 216.125 256.029 L 257.944 318.565 L 196.998 366.417 L 216.125 256.029 Z" style="stroke-opacity: 0; stroke-width: 0; fill: rgb(81, 0, 156);"></path>
  <path d="M 217.708 134.548 L 243.698 220.805 L 204.121 229.842 L 217.708 134.548 Z" style="stroke-opacity: 0; stroke-width: 0; fill: rgb(55, 0, 105);"></path>
  <path d="M 235.977 303.521 L 241.389 215.108 L 204.187 229.074 L 235.977 303.521 Z" style="stroke-opacity: 0; stroke-width: 0; fill: rgb(55, 0, 105);"></path>
  <path d="M 223.314 173.722 L 257.22 167.252 L 233.474 261.829 L 223.314 173.722 Z" style="stroke-opacity: 0; stroke-width: 0; fill: rgb(55, 0, 105);"></path>
  <path d="M 234.395 206.07 L 267.508 248.478 L 231.889 261.11 L 234.395 206.07 Z" style="stroke-opacity: 0; stroke-width: 0; fill: rgb(55, 0, 105);"></path>
</svg>